<svg xmlns="http://www.w3.org/2000/svg" width="2400" height="2400" viewBox="0 0 2400 2400"><defs><style>.cls-1{fill:#007cf7;}.cls-2{opacity:0.2;}.cls-3{fill:#fff;}</style></defs><title>quantify-logo</title><g id="Square_Background" data-name="Square Background"><rect class="cls-1" width="2400" height="2400"/></g><g id="Shadow"><polygon class="cls-2" points="554.96 1892.77 1439.7 373.46 2400 927.88 2400 2400 1433.5 2400 554.96 1892.77"/></g><g id="Glass"><path class="cls-3" d="M1863.82,1827.64,1380.56,861.11A99.87,99.87,0,0,1,1370,816.39V476a25,25,0,0,1,25-25h35a20.06,20.06,0,0,0,20-20V391a20.06,20.06,0,0,0-20-20H970a20.06,20.06,0,0,0-20,20v40a20.06,20.06,0,0,0,20,20h35a25,25,0,0,1,25,25V816.39a99.87,99.87,0,0,1-10.56,44.72L536.18,1827.64c-16.62,33.24,7.55,72.36,44.72,72.36H1819.1C1856.27,1900,1880.44,1860.88,1863.82,1827.64Z"/></g><g id="Lines"><rect class="cls-1" x="1140" y="1787" width="120" height="26"/><rect class="cls-1" x="1140" y="1707" width="120" height="26"/><rect class="cls-1" x="1100" y="1627" width="200" height="26"/><rect class="cls-1" x="1140" y="1547" width="120" height="26"/><rect class="cls-1" x="1140" y="1467" width="120" height="26"/><rect class="cls-1" x="1100" y="1387" width="200" height="26"/><rect class="cls-1" x="1140" y="1307" width="120" height="26"/><rect class="cls-1" x="1140" y="1227" width="120" height="26"/><rect class="cls-1" x="1100" y="1147" width="200" height="26"/><rect class="cls-1" x="1140" y="1067" width="120" height="26"/><rect class="cls-1" x="1140" y="987" width="120" height="26"/></g></svg>